{
	"patcher" : 	{
		"fileversion" : 1,
		"appversion" : 		{
			"major" : 6,
			"minor" : 0,
			"revision" : 5
		}
,
		"rect" : [ 49.0, 91.0, 1153.0, 640.0 ],
		"bglocked" : 0,
		"openinpresentation" : 0,
		"default_fontsize" : 12.0,
		"default_fontface" : 0,
		"default_fontname" : "Arial",
		"gridonopen" : 0,
		"gridsize" : [ 15.0, 15.0 ],
		"gridsnaponopen" : 0,
		"statusbarvisible" : 2,
		"toolbarvisible" : 1,
		"boxanimatetime" : 200,
		"imprint" : 0,
		"enablehscroll" : 1,
		"enablevscroll" : 1,
		"devicewidth" : 0.0,
		"description" : "",
		"digest" : "",
		"tags" : "",
		"boxes" : [ 			{
				"box" : 				{
					"fontname" : "Arial",
					"fontsize" : 12.0,
					"id" : "obj-20",
					"linecount" : 3,
					"maxclass" : "newobj",
					"numinlets" : 1,
					"numoutlets" : 2,
					"outlettype" : [ "", "" ],
					"patching_rect" : [ 358.5, 519.0, 147.0, 48.0 ],
					"text" : "jcom.dataspace @dataspace time @input midi @output Hz"
				}

			}
, 			{
				"box" : 				{
					"fontname" : "Arial",
					"fontsize" : 12.0,
					"id" : "obj-19",
					"linecount" : 3,
					"maxclass" : "newobj",
					"numinlets" : 2,
					"numoutlets" : 1,
					"outlettype" : [ "" ],
					"patching_rect" : [ 534.0, 451.0, 160.0, 48.0 ],
					"text" : "jcom.test.assert.equal dumpout @input getinput @expected input midi"
				}

			}
, 			{
				"box" : 				{
					"fontname" : "Arial",
					"fontsize" : 12.0,
					"id" : "obj-1",
					"linecount" : 3,
					"maxclass" : "newobj",
					"numinlets" : 2,
					"numoutlets" : 1,
					"outlettype" : [ "" ],
					"patching_rect" : [ 534.0, 371.0, 141.0, 48.0 ],
					"text" : "jcom.test.assert.equal midi2Hz @input 69. @expected 440."
				}

			}
, 			{
				"box" : 				{
					"args" : [ "@name", "jcom.jcom.test.assert.equal", "@description", "component for unit testing in Max" ],
					"bgmode" : 1,
					"id" : "obj-2",
					"maxclass" : "bpatcher",
					"name" : "jcom.maxhelpui.maxpat",
					"numinlets" : 1,
					"numoutlets" : 0,
					"patching_rect" : [ 0.0, 0.0, 1153.0, 70.0 ],
					"varname" : "maxhelpui"
				}

			}
, 			{
				"box" : 				{
					"bubble" : 1,
					"bubblepoint" : 0.15,
					"bubbleside" : 2,
					"fontname" : "Arial",
					"fontsize" : 12.0,
					"frgb" : [ 0.0, 0.0, 0.0, 1.0 ],
					"id" : "obj-40",
					"linecount" : 2,
					"maxclass" : "comment",
					"numinlets" : 1,
					"numoutlets" : 0,
					"patching_rect" : [ 823.0, 105.0, 201.0, 53.0 ],
					"text" : "@expected defines what should be returned from the system under test"
				}

			}
, 			{
				"box" : 				{
					"bubble" : 1,
					"bubbleside" : 2,
					"fontname" : "Arial",
					"fontsize" : 12.0,
					"frgb" : [ 0.0, 0.0, 0.0, 1.0 ],
					"id" : "obj-39",
					"linecount" : 3,
					"maxclass" : "comment",
					"numinlets" : 1,
					"numoutlets" : 0,
					"patching_rect" : [ 702.0, 98.0, 121.0, 67.0 ],
					"text" : "@input defines what is sent to the system under test"
				}

			}
, 			{
				"box" : 				{
					"bubble" : 1,
					"bubblepoint" : 0.53,
					"bubbleside" : 2,
					"fontname" : "Arial",
					"fontsize" : 12.0,
					"frgb" : [ 0.0, 0.0, 0.0, 1.0 ],
					"id" : "obj-38",
					"linecount" : 2,
					"maxclass" : "comment",
					"numinlets" : 1,
					"numoutlets" : 0,
					"patching_rect" : [ 585.0, 105.0, 117.0, 53.0 ],
					"text" : "first arg is the name of the test"
				}

			}
, 			{
				"box" : 				{
					"bubble" : 1,
					"bubbleside" : 2,
					"fontname" : "Arial",
					"fontsize" : 12.0,
					"frgb" : [ 0.0, 0.0, 0.0, 1.0 ],
					"id" : "obj-36",
					"maxclass" : "comment",
					"numinlets" : 1,
					"numoutlets" : 0,
					"patching_rect" : [ 424.625, 121.0, 129.25, 39.0 ],
					"text" : "the system under test"
				}

			}
, 			{
				"box" : 				{
					"fontname" : "Arial",
					"fontsize" : 12.0,
					"frgb" : [ 0.0, 0.0, 0.0, 1.0 ],
					"id" : "obj-37",
					"linecount" : 2,
					"maxclass" : "comment",
					"numinlets" : 1,
					"numoutlets" : 0,
					"patching_rect" : [ 923.0, 526.0, 150.0, 34.0 ],
					"text" : "testing different outputs with two tests"
				}

			}
, 			{
				"box" : 				{
					"fontname" : "Arial",
					"fontsize" : 12.0,
					"frgb" : [ 0.0, 0.0, 0.0, 1.0 ],
					"id" : "obj-32",
					"maxclass" : "comment",
					"numinlets" : 1,
					"numoutlets" : 0,
					"patching_rect" : [ 923.0, 314.0, 212.0, 20.0 ],
					"text" : "data can be of different list length"
				}

			}
, 			{
				"box" : 				{
					"fontname" : "Arial",
					"fontsize" : 12.0,
					"frgb" : [ 0.0, 0.0, 0.0, 1.0 ],
					"id" : "obj-31",
					"maxclass" : "comment",
					"numinlets" : 1,
					"numoutlets" : 0,
					"patching_rect" : [ 923.0, 255.0, 212.0, 20.0 ],
					"text" : "@reverse attribute for testing a NOT "
				}

			}
, 			{
				"box" : 				{
					"fontname" : "Arial",
					"fontsize" : 12.0,
					"frgb" : [ 0.0, 0.0, 0.0, 1.0 ],
					"id" : "obj-30",
					"maxclass" : "comment",
					"numinlets" : 1,
					"numoutlets" : 0,
					"patching_rect" : [ 923.0, 225.0, 191.0, 20.0 ],
					"text" : "floats and ints are not the same "
				}

			}
, 			{
				"box" : 				{
					"fontname" : "Arial",
					"fontsize" : 12.0,
					"frgb" : [ 0.0, 0.0, 0.0, 1.0 ],
					"id" : "obj-29",
					"maxclass" : "comment",
					"numinlets" : 1,
					"numoutlets" : 0,
					"patching_rect" : [ 923.0, 195.0, 191.0, 20.0 ],
					"text" : "single number input and expected"
				}

			}
, 			{
				"box" : 				{
					"fontname" : "Arial",
					"fontsize" : 12.0,
					"frgb" : [ 0.0, 0.0, 0.0, 1.0 ],
					"id" : "obj-28",
					"maxclass" : "comment",
					"numinlets" : 1,
					"numoutlets" : 0,
					"patching_rect" : [ 923.0, 165.0, 191.0, 20.0 ],
					"text" : "single number input and expected"
				}

			}
, 			{
				"box" : 				{
					"fontname" : "Arial",
					"fontsize" : 12.0,
					"frgb" : [ 0.0, 0.0, 0.0, 1.0 ],
					"id" : "obj-27",
					"maxclass" : "comment",
					"numinlets" : 1,
					"numoutlets" : 0,
					"patching_rect" : [ 923.0, 377.0, 150.0, 20.0 ],
					"text" : "woks with string data too"
				}

			}
, 			{
				"box" : 				{
					"fontname" : "Arial",
					"fontsize" : 12.0,
					"id" : "obj-22",
					"maxclass" : "newobj",
					"numinlets" : 2,
					"numoutlets" : 1,
					"outlettype" : [ "float" ],
					"patching_rect" : [ 473.0, 284.0, 32.5, 20.0 ],
					"text" : "+ 1."
				}

			}
, 			{
				"box" : 				{
					"color" : [ 1.0, 1.0, 0.4, 1.0 ],
					"fontname" : "Arial",
					"fontsize" : 12.0,
					"id" : "obj-23",
					"maxclass" : "newobj",
					"numinlets" : 2,
					"numoutlets" : 1,
					"outlettype" : [ "" ],
					"patching_rect" : [ 534.0, 284.0, 367.0, 20.0 ],
					"text" : "jcom.test.assert.equal reversefoo2 @input 1. @expected 2 @reverse 1"
				}

			}
, 			{
				"box" : 				{
					"fontname" : "Arial",
					"fontsize" : 12.0,
					"id" : "obj-24",
					"maxclass" : "newobj",
					"numinlets" : 2,
					"numoutlets" : 1,
					"outlettype" : [ "float" ],
					"patching_rect" : [ 473.0, 255.0, 32.5, 20.0 ],
					"text" : "+ 1."
				}

			}
, 			{
				"box" : 				{
					"color" : [ 1.0, 1.0, 0.4, 1.0 ],
					"fontname" : "Arial",
					"fontsize" : 12.0,
					"id" : "obj-25",
					"maxclass" : "newobj",
					"numinlets" : 2,
					"numoutlets" : 1,
					"outlettype" : [ "" ],
					"patching_rect" : [ 534.0, 255.0, 377.0, 20.0 ],
					"text" : "jcom.test.assert.equal reversefoo1 @input 1. @expected 2.1 @reverse 1"
				}

			}
, 			{
				"box" : 				{
					"fontname" : "Arial",
					"fontsize" : 12.0,
					"id" : "obj-16",
					"maxclass" : "newobj",
					"numinlets" : 2,
					"numoutlets" : 1,
					"outlettype" : [ "float" ],
					"patching_rect" : [ 473.0, 225.0, 32.5, 20.0 ],
					"text" : "+ 1."
				}

			}
, 			{
				"box" : 				{
					"color" : [ 1.0, 0.0, 0.0, 1.0 ],
					"fontname" : "Arial",
					"fontsize" : 12.0,
					"id" : "obj-21",
					"maxclass" : "newobj",
					"numinlets" : 2,
					"numoutlets" : 1,
					"outlettype" : [ "" ],
					"patching_rect" : [ 534.0, 225.0, 281.0, 20.0 ],
					"text" : "jcom.test.assert.equal badfoo2 @input 1. @expected 2"
				}

			}
, 			{
				"box" : 				{
					"fontname" : "Arial",
					"fontsize" : 12.0,
					"id" : "obj-3",
					"maxclass" : "newobj",
					"numinlets" : 2,
					"numoutlets" : 1,
					"outlettype" : [ "float" ],
					"patching_rect" : [ 473.0, 195.0, 32.5, 20.0 ],
					"text" : "+ 1."
				}

			}
, 			{
				"box" : 				{
					"color" : [ 1.0, 0.0, 0.0, 1.0 ],
					"fontname" : "Arial",
					"fontsize" : 12.0,
					"id" : "obj-10",
					"maxclass" : "newobj",
					"numinlets" : 2,
					"numoutlets" : 1,
					"outlettype" : [ "" ],
					"patching_rect" : [ 534.0, 195.0, 291.0, 20.0 ],
					"text" : "jcom.test.assert.equal badfoo1 @input 1. @expected 2.1"
				}

			}
, 			{
				"box" : 				{
					"fontname" : "Arial",
					"fontsize" : 12.0,
					"id" : "obj-12",
					"maxclass" : "newobj",
					"numinlets" : 2,
					"numoutlets" : 1,
					"outlettype" : [ "float" ],
					"patching_rect" : [ 473.0, 314.0, 32.5, 20.0 ],
					"text" : "+ 0."
				}

			}
, 			{
				"box" : 				{
					"fontname" : "Arial",
					"fontsize" : 12.0,
					"id" : "obj-15",
					"maxclass" : "newobj",
					"numinlets" : 2,
					"numoutlets" : 1,
					"outlettype" : [ "" ],
					"patching_rect" : [ 534.0, 314.0, 279.0, 20.0 ],
					"text" : "jcom.test.assert.equal listfoo @input 1 2 @expected 3."
				}

			}
, 			{
				"box" : 				{
					"fontname" : "Arial",
					"fontsize" : 12.0,
					"id" : "obj-11",
					"maxclass" : "message",
					"numinlets" : 2,
					"numoutlets" : 1,
					"outlettype" : [ "" ],
					"patching_rect" : [ 33.0, 351.0, 68.0, 18.0 ],
					"text" : "wclose"
				}

			}
, 			{
				"box" : 				{
					"fontname" : "Arial",
					"fontsize" : 12.0,
					"frgb" : [ 0.0, 0.0, 0.0, 1.0 ],
					"id" : "obj-5",
					"linecount" : 3,
					"maxclass" : "comment",
					"numinlets" : 1,
					"numoutlets" : 0,
					"patching_rect" : [ 177.0, 270.0, 150.0, 48.0 ],
					"text" : "<- this bang message is reserved by the testing system"
				}

			}
, 			{
				"box" : 				{
					"fontname" : "Arial",
					"fontsize" : 12.0,
					"id" : "obj-13",
					"maxclass" : "newobj",
					"numinlets" : 2,
					"numoutlets" : 1,
					"outlettype" : [ "float" ],
					"patching_rect" : [ 473.0, 165.0, 32.5, 20.0 ],
					"text" : "+ 1."
				}

			}
, 			{
				"box" : 				{
					"fontname" : "Arial",
					"fontsize" : 12.0,
					"id" : "obj-14",
					"maxclass" : "newobj",
					"numinlets" : 2,
					"numoutlets" : 1,
					"outlettype" : [ "" ],
					"patching_rect" : [ 534.0, 165.0, 351.0, 20.0 ],
					"text" : "jcom.test.assert.equal foooooooooooooooo @input 1. @expected 2."
				}

			}
, 			{
				"box" : 				{
					"id" : "obj-6",
					"maxclass" : "button",
					"numinlets" : 1,
					"numoutlets" : 1,
					"outlettype" : [ "bang" ],
					"patching_rect" : [ 66.0, 121.0, 20.0, 20.0 ]
				}

			}
, 			{
				"box" : 				{
					"fontname" : "Arial",
					"fontsize" : 12.0,
					"id" : "obj-9",
					"maxclass" : "newobj",
					"numinlets" : 1,
					"numoutlets" : 1,
					"outlettype" : [ "bang" ],
					"patching_rect" : [ 33.0, 151.0, 60.0, 20.0 ],
					"text" : "loadbang"
				}

			}
, 			{
				"box" : 				{
					"fontname" : "Arial",
					"fontsize" : 12.0,
					"id" : "obj-8",
					"maxclass" : "newobj",
					"numinlets" : 1,
					"numoutlets" : 2,
					"outlettype" : [ "bang", "bang" ],
					"patching_rect" : [ 33.0, 239.0, 34.0, 20.0 ],
					"text" : "t b b"
				}

			}
, 			{
				"box" : 				{
					"fontname" : "Arial",
					"fontsize" : 12.0,
					"id" : "obj-7",
					"maxclass" : "newobj",
					"numinlets" : 1,
					"numoutlets" : 0,
					"patching_rect" : [ 48.0, 270.0, 129.0, 20.0 ],
					"text" : "s start-jamoma-testing"
				}

			}
, 			{
				"box" : 				{
					"color" : [ 1.0, 0.0, 0.0, 1.0 ],
					"fontname" : "Arial",
					"fontsize" : 12.0,
					"id" : "obj-4",
					"maxclass" : "newobj",
					"numinlets" : 1,
					"numoutlets" : 1,
					"outlettype" : [ "" ],
					"patching_rect" : [ 33.0, 296.0, 75.0, 20.0 ],
					"text" : "jcom.test.finished"
				}

			}
 ],
		"lines" : [ 			{
				"patchline" : 				{
					"color" : [ 0.298039, 0.298039, 0.298039, 1.0 ],
					"destination" : [ "obj-20", 0 ],
					"disabled" : 0,
					"hidden" : 0,
					"midpoints" : [ 543.5, 426.0, 368.0, 426.0 ],
					"source" : [ "obj-1", 0 ]
				}

			}
, 			{
				"patchline" : 				{
					"destination" : [ "obj-3", 0 ],
					"disabled" : 0,
					"hidden" : 0,
					"source" : [ "obj-10", 0 ]
				}

			}
, 			{
				"patchline" : 				{
					"destination" : [ "obj-15", 0 ],
					"disabled" : 0,
					"hidden" : 0,
					"source" : [ "obj-12", 0 ]
				}

			}
, 			{
				"patchline" : 				{
					"destination" : [ "obj-14", 0 ],
					"disabled" : 0,
					"hidden" : 0,
					"source" : [ "obj-13", 0 ]
				}

			}
, 			{
				"patchline" : 				{
					"destination" : [ "obj-13", 0 ],
					"disabled" : 0,
					"hidden" : 0,
					"source" : [ "obj-14", 0 ]
				}

			}
, 			{
				"patchline" : 				{
					"destination" : [ "obj-12", 0 ],
					"disabled" : 0,
					"hidden" : 0,
					"source" : [ "obj-15", 0 ]
				}

			}
, 			{
				"patchline" : 				{
					"destination" : [ "obj-21", 0 ],
					"disabled" : 0,
					"hidden" : 0,
					"source" : [ "obj-16", 0 ]
				}

			}
, 			{
				"patchline" : 				{
					"color" : [ 0.8, 0.8, 0.8, 1.0 ],
					"destination" : [ "obj-20", 0 ],
					"disabled" : 0,
					"hidden" : 0,
					"midpoints" : [ 543.5, 508.5, 368.0, 508.5 ],
					"source" : [ "obj-19", 0 ]
				}

			}
, 			{
				"patchline" : 				{
					"color" : [ 0.298039, 0.298039, 0.298039, 1.0 ],
					"destination" : [ "obj-1", 0 ],
					"disabled" : 0,
					"hidden" : 0,
					"midpoints" : [ 368.0, 578.0, 353.125, 578.0, 353.125, 367.0, 543.5, 367.0 ],
					"source" : [ "obj-20", 0 ]
				}

			}
, 			{
				"patchline" : 				{
					"color" : [ 0.8, 0.8, 0.8, 1.0 ],
					"destination" : [ "obj-19", 0 ],
					"disabled" : 0,
					"hidden" : 0,
					"midpoints" : [ 496.0, 576.0, 518.625, 576.0, 518.625, 441.0, 543.5, 441.0 ],
					"source" : [ "obj-20", 1 ]
				}

			}
, 			{
				"patchline" : 				{
					"destination" : [ "obj-16", 0 ],
					"disabled" : 0,
					"hidden" : 0,
					"source" : [ "obj-21", 0 ]
				}

			}
, 			{
				"patchline" : 				{
					"destination" : [ "obj-23", 0 ],
					"disabled" : 0,
					"hidden" : 0,
					"source" : [ "obj-22", 0 ]
				}

			}
, 			{
				"patchline" : 				{
					"destination" : [ "obj-22", 0 ],
					"disabled" : 0,
					"hidden" : 0,
					"source" : [ "obj-23", 0 ]
				}

			}
, 			{
				"patchline" : 				{
					"destination" : [ "obj-25", 0 ],
					"disabled" : 0,
					"hidden" : 0,
					"source" : [ "obj-24", 0 ]
				}

			}
, 			{
				"patchline" : 				{
					"destination" : [ "obj-24", 0 ],
					"disabled" : 0,
					"hidden" : 0,
					"source" : [ "obj-25", 0 ]
				}

			}
, 			{
				"patchline" : 				{
					"destination" : [ "obj-10", 0 ],
					"disabled" : 0,
					"hidden" : 0,
					"source" : [ "obj-3", 0 ]
				}

			}
, 			{
				"patchline" : 				{
					"destination" : [ "obj-11", 1 ],
					"disabled" : 0,
					"hidden" : 0,
					"source" : [ "obj-4", 0 ]
				}

			}
, 			{
				"patchline" : 				{
					"destination" : [ "obj-8", 0 ],
					"disabled" : 0,
					"hidden" : 0,
					"source" : [ "obj-6", 0 ]
				}

			}
, 			{
				"patchline" : 				{
					"destination" : [ "obj-4", 0 ],
					"disabled" : 0,
					"hidden" : 0,
					"source" : [ "obj-8", 0 ]
				}

			}
, 			{
				"patchline" : 				{
					"destination" : [ "obj-7", 0 ],
					"disabled" : 0,
					"hidden" : 0,
					"source" : [ "obj-8", 1 ]
				}

			}
, 			{
				"patchline" : 				{
					"destination" : [ "obj-8", 0 ],
					"disabled" : 0,
					"hidden" : 0,
					"source" : [ "obj-9", 0 ]
				}

			}
 ],
		"dependency_cache" : [ 			{
				"name" : "jcom.test.finished.maxpat",
				"bootpath" : "/Users/lossius/dev/Jamoma/Modules/Test/components",
				"patcherrelativepath" : "",
				"type" : "JSON",
				"implicit" : 1
			}
, 			{
				"name" : "jcom.test.assert.equal.maxpat",
				"bootpath" : "/Users/lossius/dev/Jamoma/Modules/Test/components",
				"patcherrelativepath" : "",
				"type" : "JSON",
				"implicit" : 1
			}
, 			{
				"name" : "jcom.maxhelpui.maxpat",
				"bootpath" : "/Users/lossius/dev/Jamoma/Modules/Modular/Max/library/components/maxhelpui",
				"patcherrelativepath" : "../../Modular/Max/library/components/maxhelpui",
				"type" : "JSON",
				"implicit" : 1
			}
, 			{
				"name" : "jcom.maxhelpuiButton.png",
				"bootpath" : "/Users/lossius/dev/Jamoma/Modules/Modular/Max/library/components/maxhelpui",
				"patcherrelativepath" : "../../Modular/Max/library/components/maxhelpui",
				"type" : "PNG ",
				"implicit" : 1
			}
, 			{
				"name" : "jcom.maxhelpuiResize.js",
				"bootpath" : "/Users/lossius/dev/Jamoma/Modules/Modular/Max/library/components/maxhelpui",
				"patcherrelativepath" : "../../Modular/Max/library/components/maxhelpui",
				"type" : "TEXT",
				"implicit" : 1
			}
, 			{
				"name" : "jcom.jamomaPath.maxpat",
				"bootpath" : "/Users/lossius/dev/Jamoma/Modules/Modular/Max/library/components/jamomaPath",
				"patcherrelativepath" : "../../Modular/Max/library/components/jamomaPath",
				"type" : "JSON",
				"implicit" : 1
			}
, 			{
				"name" : "jcom.thru.maxpat",
				"bootpath" : "/Users/lossius/dev/Jamoma/Modules/Modular/Max/library/components/thru",
				"patcherrelativepath" : "../../Modular/Max/library/components/thru",
				"type" : "JSON",
				"implicit" : 1
			}
, 			{
				"name" : "jcom.route.mxo",
				"type" : "iLaX"
			}
, 			{
				"name" : "jcom.loader.mxo",
				"type" : "iLaX"
			}
, 			{
				"name" : "jcom.loader.mxo",
				"type" : "iLaX"
			}
, 			{
				"name" : "jcom.dataspace.mxo",
				"type" : "iLaX"
			}
 ]
	}

}
